<svg width="64" height="64" viewBox="0 0 64 64" fill="none" xmlns="http://www.w3.org/2000/svg">
<path d="M36.0767 24.9722V39.0277H62.5853V41.6644H36.7257C35.2045 41.6644 33.44 39.6159 33.44 38.3685V25.6314C33.44 24.3739 35.2147 22.3356 36.7257 22.3356H62.5853V24.9722H36.0767Z" fill="#FE6E36"/>
<path d="M60.6381 8.43225H3.36157C1.84041 8.43225 0.0657349 10.4807 0.0657349 11.7382V52.2618C0.0657349 53.5192 1.84041 55.5677 3.36157 55.5677H60.6381C62.1592 55.5677 63.9339 53.5192 63.9339 52.2618V11.7382C63.9339 10.4807 62.1592 8.43225 60.6381 8.43225ZM61.2871 52.9209H2.71254V11.0689H61.2871V52.9209Z" fill="#2B323A"/>
<path d="M44.4734 30.6816H41.7454V33.3183H44.4734V30.6816Z" fill="#2B323A"/>
</svg>
