<svg width="64" height="64" viewBox="0 0 64 64" fill="none" xmlns="http://www.w3.org/2000/svg">
<g clip-path="url(#clip0_544_2811)">
<path d="M31.9239 25.1789C29.0662 25.1789 26.7538 22.8564 26.7538 20.0088C26.7538 17.1612 29.0763 14.8387 31.9239 14.8387C34.7715 14.8387 37.094 17.1612 37.094 20.0088C37.094 22.8564 34.7715 25.1789 31.9239 25.1789ZM31.9239 17.4642C30.5203 17.4642 29.3792 18.6052 29.3792 20.0088C29.3792 21.4124 30.5203 22.5535 31.9239 22.5535C33.3275 22.5535 34.4685 21.4124 34.4685 20.0088C34.4685 18.6052 33.3275 17.4642 31.9239 17.4642Z" fill="#2B323A"/>
<path d="M31.1399 0.0850465L31.114 8.32483L33.7495 8.33311L33.7754 0.0933263L31.1399 0.0850465Z" fill="#FE6E36"/>
<path d="M31.1701 55.6665L31.1442 63.9062L33.7797 63.9145L33.8056 55.6747L31.1701 55.6665Z" fill="#2B323A"/>
<path d="M8.36648 30.5203L0.126709 30.5505L0.136369 33.186L8.37614 33.1558L8.36648 30.5203Z" fill="#2B323A"/>
<path d="M63.8734 30.5914H55.6335V33.227H63.8734V30.5914Z" fill="#FE6E36"/>
<path d="M54.7331 9.58645L48.6097 15.1L50.3733 17.0586L56.4966 11.545L54.7331 9.58645Z" fill="#FE6E36"/>
<path d="M14.4262 47.821L8.60791 53.6555L10.4741 55.5165L16.2924 49.682L14.4262 47.821Z" fill="#2B323A"/>
<path d="M50.1686 47.294L48.3491 49.2007L54.3102 54.8893L56.1297 52.9826L50.1686 47.294Z" fill="#FE6E36"/>
<path d="M10.1496 8.84919L8.33008 10.7559L14.2912 16.4444L16.1107 14.5378L10.1496 8.84919Z" fill="#FE6E36"/>
<path d="M36.8113 26.7239H26.7539C25.8854 27.0874 24.9261 27.9356 24.4919 28.8545V37.6194C24.7141 38.1748 25.2695 38.7908 25.8551 39.0331H26.7438V46.8589C27.077 47.899 28.218 49.141 29.349 49.4844H34.5494C35.539 49.1511 36.7002 48.1212 37.094 47.071V39.0432H37.5787C38.2149 38.8413 38.9722 38.1546 39.1641 37.468C39.1641 37.4478 39.1641 37.4377 39.1742 37.4175V28.9858C38.74 28.0568 37.7807 27.0773 36.8012 26.734L36.8113 26.7239ZM36.5487 36.3976H34.4686V46.8488H29.3793V36.3976H27.1275V29.3493H36.5487V36.3976Z" fill="#2B323A"/>
</g>
<defs>
<clipPath id="clip0_544_2811">
<rect width="64" height="64" fill="white"/>
</clipPath>
</defs>
</svg>
