<svg width="64" height="64" viewBox="0 0 64 64" fill="none" xmlns="http://www.w3.org/2000/svg">
<path d="M59.6659 16.1903L32.1423 7.07727C31.8321 6.97388 31.4956 6.9759 31.1854 7.08133L4.48289 16.1599C3.95172 17.1837 3.81183 18.8887 4.30651 20.0403L31.4489 29.6824C31.8382 29.8203 32.2619 29.8203 32.6512 29.6824L59.5158 20.1376C60.0592 19.0894 60.195 17.3398 59.6659 16.1903ZM7.68208 18.1487L31.676 9.9906L56.3633 18.167L32.049 26.8056L7.68208 18.1487Z" fill="#2B323A"/>
<path d="M59.6659 29.9173L52.9208 27.1479C51.6699 27.6325 50.1839 28.1961 48.6066 28.7881L56.3653 31.894L32.0511 40.5326L7.68208 31.8758L17.2087 29.0314L12.7262 27.4581L4.48289 29.8869C3.95172 30.9107 3.81183 32.6158 4.30651 33.7673L31.4489 43.4095C31.8382 43.5473 32.2619 43.5473 32.6512 43.4095L59.5158 33.8646C60.0592 32.8165 60.195 31.0669 59.6659 29.9173Z" fill="#2B323A"/>
<path d="M59.6658 43.6446L52.9207 40.8752C51.6698 41.3598 50.1838 41.9234 48.6065 42.5154L56.3652 45.6213L32.051 54.2599L7.68404 45.6031L17.2106 42.7587L12.7281 41.1854L4.48485 43.6162C3.95368 44.6401 3.81379 46.3451 4.30847 47.4966L31.4509 57.1388C31.8401 57.2767 32.2639 57.2767 32.6531 57.1388L59.5178 47.5939C60.0611 46.5458 60.197 44.7962 59.6678 43.6467L59.6658 43.6446Z" fill="#FE6E36"/>
</svg>
