<svg width="64" height="64" viewBox="0 0 64 64" fill="none" xmlns="http://www.w3.org/2000/svg">
<g clip-path="url(#clip0_544_2815)">
<path d="M15.0854 55.8351H12.4322V62.3254H15.0854V55.8351Z" fill="#2B323A"/>
<path d="M22.2707 55.8351H19.6176V62.3254H22.2707V55.8351Z" fill="#2B323A"/>
<path d="M8.12544 60.9988L8.11664 63.6584L26.3439 63.719L26.3527 61.0594L8.12544 60.9988Z" fill="#2B323A"/>
<path d="M33.6717 55.2707V35.9973C33.5379 34.9391 32.3416 33.4717 31.1029 33.0132H3.48032C2.40357 33.3518 1.10865 34.537 0.791958 35.701C0.770845 35.7857 0.749732 35.8703 0.735657 35.955V55.1931C1.12976 56.2089 2.23467 57.3589 3.3255 57.6904H31.124C32.0952 57.3659 33.2494 56.3359 33.6717 55.2636V55.2707ZM31.0185 55.0379H3.38883V35.6798H31.0114V55.0379H31.0185Z" fill="#2B323A"/>
<path d="M35.4726 0.335938C40.6945 -0.00268684 45.8328 1.218 50.3369 3.85645C52.0459 4.86057 53.6487 6.07068 55.0966 7.44238L54.5312 1.62012L57.1425 1.36621L57.7753 7.91992C57.8526 8.64649 57.4584 9.48571 56.8954 10.1699H56.9033C56.3403 10.8542 55.5939 11.4042 54.8691 11.4678L48.331 12.1035L48.0781 9.48535L52.8691 9.0166C51.6737 7.93292 50.3699 6.97022 48.9853 6.15625C44.9457 3.78588 40.3356 2.69177 35.6415 2.99512C22.7348 3.82778 12.9176 15.0384 13.748 27.9766L11.0947 28.1455C10.1657 13.74 21.102 1.2674 35.4726 0.335938Z" fill="#FE6E36"/>
<path d="M38.5698 52.1879C38.8795 53.0203 39.4003 53.7822 40.0689 54.0785L46.0438 56.8157L47.1346 54.4242L40.5967 51.433L43.5877 44.8792L41.2019 43.7858L38.4713 49.7752C38.1617 50.4383 38.2602 51.3554 38.5769 52.1879H38.5698Z" fill="#2B323A"/>
<path d="M63.2155 24.7734C63.117 23.2425 62.8847 21.7116 62.5258 20.2302C61.8784 17.5564 60.8157 15.0238 59.373 12.6887L57.1632 14.1702C58.4299 16.2443 59.3659 18.4877 59.943 20.858C60.2668 22.1914 60.4779 23.56 60.5623 24.9427C60.9635 31.2072 58.9085 37.2601 54.7774 41.9797C50.6393 46.6993 44.9177 49.5212 38.6683 49.9233L38.8372 52.5829C45.7974 52.1314 52.1665 48.9921 56.7691 43.7363C61.3717 38.4806 63.6589 31.7504 63.2085 24.7734H63.2155Z" fill="#2B323A"/>
</g>
<defs>
<clipPath id="clip0_544_2815">
<rect width="64" height="64" fill="white"/>
</clipPath>
</defs>
</svg>
