<svg width="32" height="32" viewBox="0 0 32 32" fill="none" xmlns="http://www.w3.org/2000/svg">
<path d="M1.56208 1.56202C-0.520719 3.64481 -0.520719 7.02169 1.56208 9.10449C3.64487 11.1873 7.02175 11.1873 9.10455 9.10449C11.1873 7.02169 11.1873 3.64481 9.10455 1.56202C7.02175 -0.52078 3.64487 -0.52078 1.56208 1.56202ZM22.5621 22.562C20.4793 24.6448 20.4793 28.0217 22.5621 30.1045C24.6449 32.1873 28.0218 32.1873 30.1045 30.1045C32.1873 28.0217 32.1873 24.6448 30.1045 22.562C28.0218 20.4792 24.6449 20.4792 22.5621 22.562ZM5.33331 5.33325L4.62621 6.04036L25.6262 27.0404L26.3333 26.3332L27.0404 25.6261L6.04042 4.62615L5.33331 5.33325Z" fill="#FE6E36"/>
</svg>
