<svg width="105" height="21" viewBox="0 0 105 21" fill="none" xmlns="http://www.w3.org/2000/svg">
<path d="M30.2265 17.8425C29.0537 16.9683 28.337 15.6866 28.0683 13.989H30.4627C30.9677 16.1619 32.4988 17.2484 35.0643 17.2484C36.2697 17.2484 37.2063 16.9853 37.8904 16.4675C38.5664 15.9497 38.9084 15.2283 38.9084 14.3031C38.9084 13.5137 38.6722 12.9111 38.208 12.5121C37.7438 12.1132 36.9049 11.7907 35.7077 11.5615L32.5803 10.9673C31.1713 10.7042 30.1369 10.2204 29.4854 9.52441C28.8257 8.81992 28.4999 7.86927 28.4999 6.67248C28.4999 5.17013 29.0374 3.99031 30.1288 3.13303C31.212 2.27576 32.6943 1.85136 34.5756 1.85136C36.457 1.85136 37.9311 2.27576 39.0387 3.11606C40.1464 3.95636 40.8061 5.17013 41.0341 6.74887H38.7293C38.3628 4.73724 36.9701 3.73567 34.5512 3.73567C33.411 3.73567 32.507 3.98182 31.8228 4.46563C31.1387 4.94944 30.8048 5.6115 30.8048 6.43482C30.8048 7.17327 31.0247 7.73347 31.4563 8.08996C31.888 8.45494 32.678 8.75201 33.8182 8.98118L36.9293 9.6008C38.4035 9.89788 39.4867 10.4071 40.1789 11.1371C40.8712 11.8586 41.2214 12.8432 41.2214 14.0824C41.2214 15.6611 40.6676 16.9089 39.5518 17.8171C38.4361 18.7253 36.9049 19.1751 34.9584 19.1751C33.0119 19.1751 31.4075 18.7422 30.2347 17.868L30.2265 17.8425ZM46.8492 18.0547C45.6601 17.3248 44.7398 16.2977 44.0882 14.9906C43.4286 13.6835 43.1028 12.1811 43.1028 10.5005C43.1028 8.81991 43.4286 7.30058 44.0882 5.98496C44.7479 4.67783 45.6683 3.65928 46.8492 2.92933C48.0301 2.19937 49.3984 1.84288 50.9295 1.84288C52.4607 1.84288 53.8208 2.20786 55.0099 2.92933C56.1989 3.6508 57.1192 4.66934 57.7708 5.98496C58.4305 7.2921 58.7563 8.80294 58.7563 10.5005C58.7563 12.1981 58.4305 13.675 57.7708 14.9906C57.1111 16.2977 56.1908 17.3248 55.0099 18.0547C53.8289 18.7847 52.4607 19.1582 50.9295 19.1582C49.3984 19.1582 48.0383 18.7932 46.8492 18.0547ZM46.1406 13.989C46.5967 14.9991 47.2401 15.78 48.0708 16.3402C48.9016 16.9004 49.8545 17.1805 50.9295 17.1805C52.0046 17.1805 52.9575 16.9004 53.7882 16.3402C54.6189 15.78 55.2623 14.9991 55.7184 13.989C56.1745 12.9875 56.4025 11.8246 56.4025 10.5005C56.4025 9.17641 56.1745 8.01357 55.7266 7.00351C55.2786 5.99345 54.6352 5.20408 53.8045 4.65237C52.9738 4.10065 52.0127 3.82055 50.9214 3.82055C49.83 3.82055 48.869 4.10065 48.0383 4.65237C47.2075 5.20408 46.5641 5.98496 46.1162 7.00351C45.6683 8.01357 45.4402 9.18489 45.4402 10.5005C45.4402 11.8161 45.6683 12.979 46.1243 13.989H46.1406ZM61.1996 2.09751H63.5044V16.8579H72.2841V18.912H61.2077V2.09751H61.1996ZM80.7461 2.09751H83.3523L89.7782 18.912H87.3593L85.6978 14.4134H78.2946L76.6087 18.912H74.3039L80.7298 2.09751H80.7461ZM84.9893 12.4527L82.0247 4.44017L79.0357 12.4527H84.9893ZM91.8224 2.09751H99.3641C101.107 2.09751 102.418 2.50493 103.298 3.31128C104.186 4.11763 104.625 5.31442 104.625 6.89317C104.625 8.32762 104.243 9.45651 103.485 10.2883C102.728 11.1201 101.628 11.6294 100.187 11.8076L105 18.9035H102.174L97.4746 11.8586H94.1028V18.9035H91.798V2.09751H91.8224ZM99.1768 9.813C100.252 9.813 101.05 9.58382 101.571 9.11699C102.092 8.65864 102.353 7.93718 102.353 6.96956C102.353 6.00194 102.092 5.30593 101.571 4.8391C101.05 4.37226 100.252 4.14309 99.1768 4.14309H94.1273V9.80451H99.1768V9.813Z" fill="white"/>
<path d="M18.865 3.48101C16.495 0.815819 12.7648 -0.465851 9.12431 0.153764C6.00501 0.646061 3.26036 2.53886 1.59077 5.35684C-0.0381084 8.09842 -0.437183 11.4002 0.491275 14.4134C1.33829 17.2568 3.41511 19.6929 6.05388 20.9066L6.26564 21L6.58326 20.3379L6.37966 20.2191C4.40872 19.0648 2.91015 17.2399 2.16087 15.0839C0.898494 11.5785 1.86767 7.42788 4.52274 4.98337C6.57512 3.0736 9.13245 2.29271 11.7224 2.78501C14.4426 3.30277 16.7719 5.16161 18.1238 7.87774C19.826 11.3068 19.3211 15.5847 16.837 18.7762L16.7067 18.9459L17.1465 19.4552L17.3175 19.3449C19.1826 18.1311 20.616 16.1025 21.2513 13.7938C22.2612 10.2119 21.3246 6.16318 18.865 3.47253V3.48101Z" fill="white"/>
</svg>
