<svg width="94" height="17" viewBox="0 0 94 17" fill="none" xmlns="http://www.w3.org/2000/svg">
<path d="M65.5107 0.926161C62.7952 1.00441 63.2715 2.17789 63.9326 3.91249L67.459 12.9193L70.9141 4.75819C69.7766 1.81501 69.7406 1.26099 67.5723 0.933973V0.386122H75.4355V0.933973C72.6773 1.04061 73.0463 2.14928 73.4941 3.3578L77.0986 12.9193C78.5701 9.64224 81.1432 3.98421 81.1436 2.25624C81.1436 1.04057 80.0062 1.04061 79.082 0.933973V0.386122H85.2891V0.933973C83.1919 1.08327 82.6438 2.55488 81.876 4.21132L76.1387 17.0004H75.627L71.2549 5.8246L66.6631 17.0004H66.1084L66.0938 16.9935L60.8047 3.86268C60.1435 2.28446 59.7383 1.03309 57.7549 0.919325V0.371473H65.5107V0.926161ZM53.8232 0.00916862C54.5554 -0.0334616 55.2949 0.0728841 55.9844 0.321669C56.674 0.570489 57.3067 0.969262 57.8398 1.47401C58.373 1.97874 58.7928 2.59752 59.0771 3.27284C59.3614 3.95516 59.5035 4.68728 59.4893 5.41932H48.832L48.6758 7.25331C48.562 8.17743 48.6479 9.10886 48.918 9.99745C49.1881 10.8861 49.6426 11.7041 50.2539 12.4008C50.8652 13.0974 51.6192 13.6585 52.458 14.0424C53.2969 14.4263 54.2145 14.6329 55.1387 14.64C55.9987 14.6471 56.8449 14.4407 57.6055 14.0355C58.3588 13.6304 59.0055 13.0404 59.4746 12.3226L60.0225 12.7279C59.3542 13.9577 58.3874 15.003 57.2002 15.7494C56.0201 16.5029 54.6621 16.9295 53.2617 16.9935C52.2167 16.9793 51.1853 16.7587 50.2256 16.3392C49.2659 15.9198 48.3986 15.3079 47.6807 14.5473C46.9629 13.7868 46.4016 12.8913 46.0391 11.9105C45.6765 10.9296 45.5121 9.88418 45.5547 8.83925C45.5547 4.09033 48.861 0.00916862 53.8232 0.00916862ZM88.6943 0.00233269C90.1446 -0.0118856 91.5668 0.414818 92.7754 1.21815L92.8818 4.48768L92.0781 4.63026L92.0713 4.64491C91.5595 2.95304 90.7561 0.891258 88.6592 0.891005C88.3251 0.883895 87.9903 0.94761 87.6846 1.07557C87.379 1.20353 87.1017 1.39547 86.8672 1.6371C86.6397 1.87881 86.4621 2.17097 86.3555 2.48378C86.2489 2.79642 86.2062 3.1303 86.2275 3.46425C86.2275 7.25332 93.8336 7.13984 93.834 11.8812C93.834 15.1586 90.7131 16.9935 87.7344 16.9935C86.1349 17.0219 84.571 16.5451 83.2559 15.6351L82.9648 11.5551L83.8105 11.4057C84.3296 13.652 85.5737 16.0404 88.1826 16.0404C88.5665 16.0475 88.9437 15.9834 89.292 15.8412C89.6472 15.699 89.9666 15.4855 90.2295 15.2084C90.4925 14.9383 90.6989 14.6116 90.834 14.2562C90.969 13.9008 91.0262 13.5168 91.0049 13.14C91.0049 8.94563 83.3984 9.79143 83.3984 4.53065C83.3985 1.66574 86.0853 0.00233485 88.6943 0.00233269ZM9.44824 0.00233269C10.6284 0.00233377 13.4511 0.151525 13.4512 1.83632C13.4085 2.27708 13.2093 2.6898 12.8965 2.9955C12.5838 3.30819 12.1642 3.49307 11.7236 3.5287C10.4369 3.5287 9.11373 1.14003 7.27246 1.14003C4.33679 1.14031 2.93668 4.55892 2.93652 7.05409C2.93652 11.7959 6.17093 14.8109 9.80371 14.8109C11.19 14.7825 12.5267 14.277 13.5859 13.3812L14.0264 13.9291C13.2302 14.8675 12.2421 15.6286 11.126 16.1547C10.0099 16.6807 8.79422 16.9647 7.56445 16.9789L7.15527 16.9818C2.89589 16.7581 6.51246e-05 13.1123 0 8.94569C0 3.79866 4.48605 0.00233269 9.44824 0.00233269ZM39.2002 0.00233269C43.6076 0.00233269 43.8291 3.6416 43.8291 5.80995V12.3578C43.8291 15.372 43.9779 15.6706 46.6934 16.0687V16.6234H38.127V16.0687C40.8427 15.6635 40.9566 15.2228 40.9922 12.3578V8.13515C40.9922 5.56167 41.0987 1.92138 36.6201 1.92128C35.9236 1.91417 35.2269 2.04969 34.5801 2.31972C33.9331 2.58986 33.3494 2.99563 32.873 3.50038V12.3646C32.873 15.3789 33.0228 15.6775 35.7383 16.0756V16.6303H27.1787V16.0756C29.8944 15.6704 30.0084 15.2296 30.0439 12.3646V5.3412C30.0439 3.79852 30.0793 3.32198 28.2451 1.99257L28.2529 1.62343L32.625 0.00233269L33.0303 0.143934L32.7383 2.83143C34.8353 1.29596 36.8544 0.00246547 39.2002 0.00233269ZM20.9727 2.84608C23.9158 2.84614 26.3047 5.23496 26.3047 8.17811C26.3045 11.1211 23.9157 13.5091 20.9727 13.5092C18.0296 13.5092 15.6408 11.1211 15.6406 8.17811C15.6406 5.23492 18.0295 2.84608 20.9727 2.84608ZM19.9062 3.55702C18.7261 3.55702 17.7734 4.50971 17.7734 5.68983C17.7736 6.86983 18.7262 7.82265 19.9062 7.82265C21.0862 7.82261 22.0389 6.8698 22.0391 5.68983C22.0391 4.50974 21.0863 3.55706 19.9062 3.55702ZM52.6855 0.819715C50.5884 0.819775 49.3369 2.8889 48.9316 4.72304L55.9912 4.42421C55.6642 2.73223 54.6263 0.819715 52.6855 0.819715Z" fill="white"/>
</svg>
