<svg width="64" height="64" viewBox="0 0 64 64" fill="none" xmlns="http://www.w3.org/2000/svg">
<g clip-path="url(#clip0_544_2969)">
<path d="M32.8927 12.98H12.2261V15.6587H32.8927V12.98Z" fill="#FE6E36"/>
<path d="M12.2199 19.6357L12.202 22.3145L22.8868 22.3849L22.9047 19.7061L12.2199 19.6357Z" fill="#FE6E36"/>
<path d="M46.9493 63.9999H44.2954V55.9495H19.9088L19.9086 63.9999H17.2548L17.2549 56.5209C17.2549 55.8576 19.2223 53.3066 20.4826 53.3066H43.7216C44.9819 53.3066 46.9493 55.8576 46.9493 56.5209V63.9999Z" fill="#2B323A"/>
<path d="M32.1119 49.6124C26.2099 49.6124 21.4043 44.8267 21.4043 38.9493C21.4043 33.0718 26.2099 28.2861 32.1119 28.2861C38.0139 28.2861 42.8196 33.0718 42.8196 38.9493C42.8196 44.8267 38.0139 49.6124 32.1119 49.6124ZM32.1119 30.929C27.6752 30.929 24.0582 34.531 24.0582 38.9493C24.0582 43.3676 27.6752 46.9696 32.1119 46.9696C36.5487 46.9696 40.1657 43.3676 40.1657 38.9493C40.1657 34.531 36.5487 30.929 32.1119 30.929Z" fill="#2B323A"/>
<path d="M0.522705 50.8781C0.522705 52.2659 1.66007 53.3985 3.0536 53.3985H12.8186V50.7863H3.14582V8.46031H61.3769V50.7863H51.2431V53.3985H61.4691C62.8627 53.3985 64 52.2659 64 50.8781V8.35827C64 6.97053 62.8627 5.83789 61.4691 5.83789H3.0536C1.66007 5.83789 0.522705 6.97053 0.522705 8.35827V50.8781Z" fill="#2B323A"/>
<path d="M42.6768 0.0302734H0V2.65269H42.6768V0.0302734Z" fill="#2B323A"/>
<path d="M60.2185 2.67343V0.0612236L63.7331 0V2.62241L60.2185 2.67343Z" fill="#2B323A"/>
<path d="M53.2001 2.67343V0.0612236L56.7146 0V2.62241L53.2001 2.67343Z" fill="#2B323A"/>
<path d="M46.1812 2.67343V0.0612236L49.6957 0V2.62241L46.1812 2.67343Z" fill="#2B323A"/>
</g>
<defs>
<clipPath id="clip0_544_2969">
<rect width="64" height="64" fill="white"/>
</clipPath>
</defs>
</svg>
