<svg width="64" height="64" viewBox="0 0 64 64" fill="none" xmlns="http://www.w3.org/2000/svg">
<g clip-path="url(#clip0_544_2971)">
<path d="M2.84247 42.739H0.217041V29.6017C0.217041 28.7636 2.65062 26.4209 3.39786 26.4209H14.6064V29.0362H2.84247V42.739Z" fill="#2B323A"/>
<path d="M61.1675 42.739H63.7828V29.6017C63.7828 28.7636 61.3493 26.4209 60.602 26.4209H49.3934V29.0362H61.1675V42.739Z" fill="#FE6E36"/>
<path d="M44.0113 63.6715H46.6266V50.6252C46.6266 49.9688 44.6878 47.4443 43.4458 47.4443H29.8239V50.0597H44.0113V63.6715Z" fill="#2B323A"/>
<path d="M19.9785 63.6715H17.3632V50.6252C17.3632 49.9688 19.3019 47.4443 20.544 47.4443H34.1659V50.0597H19.9785V63.6715Z" fill="#2B323A"/>
<path d="M32.005 43.789C26.1886 43.789 21.4528 39.0531 21.4528 33.2368C21.4528 27.4204 26.1886 22.6846 32.005 22.6846C37.8213 22.6846 42.5572 27.4204 42.5572 33.2368C42.5572 39.0531 37.8213 43.789 32.005 43.789ZM32.005 25.2999C27.6326 25.2999 24.0681 28.8644 24.0681 33.2368C24.0681 37.6092 27.6326 41.1737 32.005 41.1737C36.3773 41.1737 39.9419 37.6092 39.9419 33.2368C39.9419 28.8644 36.3773 25.2999 32.005 25.2999Z" fill="#2B323A"/>
<path d="M15.0306 21.4326C9.21421 21.4326 4.47833 16.6967 4.47833 10.8803C4.47833 5.064 9.21421 0.328125 15.0306 0.328125C20.8469 0.328125 25.5828 5.064 25.5828 10.8803C25.5828 16.6967 20.8469 21.4326 15.0306 21.4326ZM15.0306 2.94346C10.6582 2.94346 7.09367 6.50799 7.09367 10.8803C7.09367 15.2527 10.6582 18.8172 15.0306 18.8172C19.4029 18.8172 22.9674 15.2527 22.9674 10.8803C22.9674 6.50799 19.4029 2.94346 15.0306 2.94346Z" fill="#2B323A"/>
<path d="M48.8482 21.4628C43.0318 21.4628 38.296 16.727 38.296 10.9106C38.296 5.09428 43.0318 0.358398 48.8482 0.358398C54.6645 0.358398 59.4004 5.09428 59.4004 10.9106C59.4004 16.727 54.6645 21.4628 48.8482 21.4628ZM48.8482 2.97373C44.4758 2.97373 40.9113 6.53827 40.9113 10.9106C40.9113 15.283 44.4758 18.8475 48.8482 18.8475C53.2205 18.8475 56.7851 15.283 56.7851 10.9106C56.7851 6.53827 53.2205 2.97373 48.8482 2.97373Z" fill="#FE6E36"/>
</g>
<defs>
<clipPath id="clip0_544_2971">
<rect width="64" height="64" fill="white"/>
</clipPath>
</defs>
</svg>
