<svg width="64" height="64" viewBox="0 0 64 64" fill="none" xmlns="http://www.w3.org/2000/svg">
<path d="M32.4799 45.2353C25.159 45.2353 19.2114 39.2877 19.2114 31.9668C19.2114 24.6459 25.159 18.6982 32.4799 18.6982C39.8008 18.6982 45.7484 24.6459 45.7484 31.9668C45.7484 39.2877 39.8008 45.2353 32.4799 45.2353ZM32.4799 21.3136C26.603 21.3136 21.8267 26.0898 21.8267 31.9668C21.8267 37.8437 26.603 42.62 32.4799 42.62C38.3568 42.62 43.1331 37.8437 43.1331 31.9668C43.1331 26.0898 38.3568 21.3136 32.4799 21.3136Z" fill="#FE6E36"/>
<path d="M62.9551 25.8372L62.9248 25.6959C62.7633 25.4333 62.5613 25.1809 62.3391 24.9688L57.9365 23.03C54.2104 21.3841 52.0091 17.5671 52.4534 13.528L52.7664 10.6804L52.7462 10.7208C52.7462 10.7208 52.7563 10.6905 52.7664 10.6703L52.8876 9.56964C52.8371 9.11524 52.6957 8.62044 52.4635 8.20643C49.5351 5.71227 46.223 3.80378 42.6282 2.52136C42.1536 2.51126 41.6285 2.59204 41.1842 2.7738L40.2451 3.46046L37.9428 5.13669C34.661 7.53998 30.2483 7.53998 26.9665 5.13669L23.3414 2.48097C22.9374 2.3396 22.4931 2.25882 22.0791 2.26891C18.5752 3.43016 15.3237 5.17709 12.4155 7.47939H12.3953C12.1833 7.85301 12.0116 8.28722 11.9308 8.72142L12.4559 13.5179C12.9002 17.557 10.6888 21.3841 6.97278 23.0199L1.91378 25.2516C1.54016 25.5343 1.18673 25.9281 0.944384 26.3421C0.570765 28.3011 0.378906 30.3106 0.378906 32.3099C0.378906 33.552 0.459689 34.8142 0.601058 36.0461C0.762624 36.5005 1.04536 36.965 1.38869 37.3285L6.96269 39.7924C10.6888 41.4384 12.8901 45.2553 12.4458 49.2945L11.739 55.8278C11.8197 56.2115 11.9712 56.6053 12.1732 56.9587L12.2237 56.9991C14.6875 58.9783 17.4139 60.5636 20.3221 61.7249C20.7664 61.7552 21.2713 61.6845 21.7257 61.5229L26.9665 57.6858C30.2483 55.2825 34.661 55.2825 37.9428 57.6858L42.8302 61.2705C43.2947 61.4321 43.8601 61.5027 44.365 61.4522C47.3742 60.1698 50.1612 58.4431 52.6452 56.2923H52.6553C52.8472 55.959 53.0088 55.5854 53.0895 55.2118L52.4433 49.3147C51.999 45.2755 54.2104 41.4485 57.9264 39.8126L62.4603 37.8132C62.8137 37.4901 63.1268 37.066 63.3287 36.6217C63.5206 35.1979 63.6216 33.764 63.6216 32.3402C63.6216 30.1591 63.3994 27.9881 62.9551 25.8675V25.8372ZM60.8144 35.6624L56.8762 37.3992C52.1101 39.4996 49.2827 44.397 49.8481 49.5772L50.4136 54.7372C48.4243 56.373 46.2331 57.7362 43.8803 58.7965L39.4777 55.5753C35.2669 52.4955 29.6222 52.4955 25.4114 55.5753L20.6654 59.049C18.4338 58.0998 16.3335 56.8779 14.4048 55.4037L15.0409 49.5873C15.6064 44.4071 12.779 39.5097 8.01286 37.4093L3.12551 35.2585C3.02454 34.2891 2.98414 33.3096 2.98414 32.3301C2.98414 30.7044 3.12551 29.0786 3.38806 27.4731L8.01286 25.4333C12.779 23.333 15.6064 18.4355 15.0409 13.2553L14.5865 9.11524C16.9393 7.34812 19.5244 5.96472 22.2912 4.98523L25.4114 7.27743C29.6222 10.3573 35.2669 10.3573 39.4777 7.27743L42.295 5.20738C45.1628 6.29794 47.8286 7.83281 50.2218 9.7716L49.838 13.2654C49.2726 18.4456 52.1 23.3431 56.8661 25.4434L60.5114 27.049C60.8346 28.7858 60.9961 30.563 60.9961 32.3402C60.9961 33.451 60.9356 34.5718 60.8043 35.6927L60.8144 35.6624Z" fill="#2B323A"/>
</svg>
