<svg width="64" height="64" viewBox="0 0 64 64" fill="none" xmlns="http://www.w3.org/2000/svg">
<path d="M41.4011 63.2922C41.1357 63.2172 34.8581 61.3435 28.4796 52.9678L22.4675 47.2828L22.445 46.8106C22.4301 46.4808 22.3366 43.5352 24.064 42.1561C24.6547 41.684 25.6867 41.2155 27.257 41.6577C27.9786 41.8601 28.6852 42.1974 29.3582 42.6133L21.7534 27.7581L21.7833 27.4171C21.8094 27.1098 22.1123 24.4004 24.1799 23.2911C25.5072 22.5791 27.1411 22.7365 29.0329 23.767L29.362 23.9469L36.7388 38.967L34.63 40.0051L27.5897 25.6708C26.842 25.3073 25.9259 25.0262 25.2903 25.3672C24.6099 25.7345 24.2883 26.7576 24.1724 27.3234L34.8357 48.1559L32.8167 49.3514C31.968 48.0885 29.1975 44.652 26.6251 43.9287C25.8848 43.7189 25.6194 43.9287 25.5334 43.9999C25.0249 44.4047 24.8342 45.4989 24.7968 46.2522L30.2369 51.3975L30.2967 51.4762C36.2265 59.2973 41.9919 61.0212 42.0517 61.0399L41.4049 63.3034L41.4011 63.2922Z" fill="#2B323A"/>
<path d="M40.4179 38.0301L37.539 32.1652C37.1128 32.0303 36.3426 31.8766 35.6434 32.1764C34.9592 32.4725 34.4283 33.1808 34.0693 34.2825L31.8372 33.5518C32.4205 31.7642 33.4001 30.5687 34.7461 30.0029C36.7464 29.1597 38.6943 30.0741 38.9112 30.179L39.2701 30.3551L42.5304 36.992L40.4217 38.0301H40.4179Z" fill="#2B323A"/>
<path d="M46.243 35.5901L43.91 30.842C43.6782 30.6921 43.2146 30.441 42.6163 30.3661C41.4872 30.2236 40.3581 30.782 39.2626 32.015L37.509 30.4485C40.803 26.7384 44.2427 27.9901 45.6037 29.1706L45.7832 29.328L48.348 34.552L46.2393 35.5901H46.243Z" fill="#2B323A"/>
<path d="M56.2895 54.0958L54.8724 41.5341L49.1594 29.9018C48.9949 29.7331 48.5126 29.3059 47.9069 29.3134C47.0844 29.3246 46.2842 30.1191 45.7608 30.7862L43.9175 29.3284C45.1551 27.7582 46.5048 26.96 47.9219 26.96C49.7913 26.96 50.9391 28.3503 51.0625 28.5077L51.141 28.6051L57.1606 40.8595L58.6225 53.8297L56.2895 54.0958Z" fill="#2B323A"/>
<path d="M19.6596 20.3116L28.7675 11.1826L27.0888 9.5L17.9061 18.7114L12.5109 13.3037L10.8322 14.9864L15.9058 20.0718C16.6723 20.7313 18.5716 20.9225 19.6559 20.3004V20.3079L19.6596 20.3116Z" fill="#FE6E36"/>
<path d="M15.8498 29.0545C8.20384 26.8735 3.75084 18.8613 5.9306 11.1938C8.10663 3.53014 16.1003 -0.933159 23.7501 1.25165C31.3998 3.43271 35.8491 11.4449 33.673 19.1124L31.4148 18.4678C33.2393 12.052 29.5117 5.34395 23.1107 3.51515C16.7023 1.69011 10.0135 5.42265 8.18888 11.8384C6.36431 18.2542 10.092 24.9622 16.4929 26.791L15.8498 29.0545Z" fill="#FE6E36"/>
</svg>
