<svg width="64" height="64" viewBox="0 0 64 64" fill="none" xmlns="http://www.w3.org/2000/svg">
<g clip-path="url(#clip0_544_2972)">
<path d="M29.4734 1.60352H26.7369V46.2864H29.4734V1.60352Z" fill="#2B323A"/>
<path d="M54.0213 0.755371H3.08784C1.94678 1.00782 0.462405 2.30034 0.108981 3.58276C0.0584917 3.75442 0.0382961 3.92609 0.0281982 4.09775V44.9737C0.0281982 46.549 1.31062 47.8314 2.88588 47.8314H34.1588V45.0949H2.88588C2.82529 45.0949 2.76471 45.0444 2.76471 44.9737V3.61305C2.76471 3.54237 2.8152 3.49188 2.88588 3.49188H54.0213C54.0818 3.49188 54.1424 3.54237 54.1424 3.61305V30.8469H56.8789V3.61305C56.8789 2.03779 55.5965 0.755371 54.0213 0.755371Z" fill="#2B323A"/>
<path d="M63.4426 57.8483C63.8768 57.0607 64.0888 55.8489 63.9071 54.8291C63.8768 54.7887 63.8566 54.7483 63.8263 54.718L45.9935 31.5031C45.7209 31.1497 45.3372 30.9174 44.9131 30.8366L37.3902 29.4734C36.8449 29.3724 36.3097 29.534 35.8957 29.8975C35.4817 30.2611 35.2697 30.7861 35.31 31.3314L35.8856 39.7429C35.9058 40.0963 36.0371 40.4397 36.2592 40.7123L53.3549 62.3216C54.2132 62.9477 55.5461 63.3718 56.5862 63.2102C56.6568 63.1699 56.7275 63.1194 56.7982 63.0689L63.4325 57.8584L63.4426 57.8483ZM55.4956 60.6151L38.6019 39.2481L38.1273 32.3816L44.0548 33.4621L61.3624 56.0004L55.4855 60.6151H55.4956Z" fill="#FE6E36"/>
</g>
<defs>
<clipPath id="clip0_544_2972">
<rect width="64" height="64" fill="white"/>
</clipPath>
</defs>
</svg>
