<svg width="64" height="64" viewBox="0 0 64 64" fill="none" xmlns="http://www.w3.org/2000/svg">
<path d="M16.6986 48.8136C7.53408 48.8136 0.0708008 41.3521 0.0708008 32.1673C0.0708008 22.9824 7.52395 15.521 16.6986 15.521C25.8733 15.521 33.3264 22.9824 33.3264 32.1673H30.6834C30.6834 24.4524 24.4151 18.167 16.6986 18.167C8.98218 18.167 2.71383 24.4423 2.71383 32.1673C2.71383 39.8923 8.98218 46.1676 16.6986 46.1676V48.8136Z" fill="#2B323A"/>
<path d="M47.3011 48.4791C38.1366 48.4791 30.6733 41.0177 30.6733 31.8328H33.3163C33.3163 39.5477 39.5847 45.8331 47.3011 45.8331C55.0175 45.8331 61.2859 39.5578 61.2859 31.8328C61.2859 24.1078 55.0175 17.8325 47.3011 17.8325V15.1865C56.4656 15.1865 63.9289 22.648 63.9289 31.8328C63.9289 41.0177 56.4758 48.4791 47.3011 48.4791Z" fill="#2B323A"/>
<path d="M19.9898 29.3797L18.1467 27.4839L15.2607 30.3022C14.8353 31.1943 14.6834 32.5224 15.0075 33.4956L17.9746 36.6383L19.8885 34.8237L17.2556 32.0358L19.9796 29.3797H19.9898Z" fill="#FE6E36"/>
<path d="M50.1365 30.8395L46.734 27.6157L44.9213 29.5318L47.7061 32.1676L45.134 34.9758L47.0783 36.76L50.0454 33.5261C50.3188 32.7049 50.3897 31.6607 50.1466 30.8395H50.1365Z" fill="#FE6E36"/>
</svg>
