<svg xmlns="http://www.w3.org/2000/svg" xmlns:xlink="http://www.w3.org/1999/xlink"><defs><clipPath id="clip0_544_2815"><path fill="#fff" d="M0 0h64v64H0z"/></clipPath><clipPath id="clip0_544_2811"><path fill="#fff" d="M0 0h64v64H0z"/></clipPath><clipPath id="clip0_544_2969"><path fill="#fff" d="M0 0h64v64H0z"/></clipPath><clipPath id="clip0_544_2971"><path fill="#fff" d="M0 0h64v64H0z"/></clipPath><clipPath id="clip0_544_2972"><path fill="#fff" d="M0 0h64v64H0z"/></clipPath></defs><symbol id="advantages-1" viewBox="0 0 64 64"><g clip-path="url(#clip0_544_2815)"><path d="M15.085 55.835h-2.653v6.49h2.653v-6.49zm7.185 0h-2.652v6.49h2.653v-6.49z" fill="#2B323A"/><path d="M8.125 60.999l-.008 2.66 18.227.06.009-2.66L8.125 61zm25.547-5.729V35.998c-.134-1.058-1.33-2.525-2.57-2.984H3.48c-1.076.339-2.371 1.524-2.688 2.688-.021.085-.042.17-.056.254v19.238c.394 1.016 1.499 2.166 2.59 2.497h27.798c.971-.324 2.125-1.354 2.548-2.426v.007zm-2.653-.232H3.389V35.68H31.01v19.358h.008z" fill="#2B323A"/><path d="M35.473.336a25.973 25.973 0 0119.624 7.106L54.53 1.62l2.611-.254.633 6.554c.078.726-.317 1.566-.88 2.25h.008c-.563.684-1.31 1.234-2.034 1.298l-6.538.636-.253-2.619 4.791-.468A23.289 23.289 0 0035.64 2.996c-12.906.832-22.723 12.042-21.893 24.98l-2.653.17C10.165 13.74 21.102 1.266 35.473.335z" fill="#FE6E36"/><path d="M38.57 52.188c.31.832.83 1.594 1.499 1.89l5.975 2.738 1.09-2.392-6.537-2.991 2.99-6.554-2.385-1.093-2.73 5.99c-.31.662-.212 1.58.105 2.412h-.007z" fill="#2B323A"/><path d="M63.215 24.773a26.623 26.623 0 00-.69-4.543 25.927 25.927 0 00-3.152-7.541l-2.21 1.481a23.439 23.439 0 013.4 10.773c.4 6.264-1.655 12.317-5.786 17.037-4.138 4.72-9.86 7.541-16.109 7.943l.17 2.66c6.96-.452 13.328-3.59 17.931-8.847 4.603-5.255 6.89-11.986 6.44-18.963h.006z" fill="#2B323A"/></g></symbol><symbol id="advantages-2" viewBox="0 0 64 64"><path d="M36.077 24.972v14.056h26.508v2.636h-25.86c-1.52 0-3.285-2.048-3.285-3.296V25.631c0-1.257 1.775-3.295 3.286-3.295h25.86v2.636h-26.51z" fill="#FE6E36"/><path d="M60.638 8.432H3.362c-1.522 0-3.296 2.049-3.296 3.306v40.524c0 1.257 1.774 3.306 3.296 3.306h57.276c1.521 0 3.296-2.049 3.296-3.306V11.738c0-1.257-1.775-3.306-3.296-3.306zm.65 44.489H2.712V11.069h58.574V52.92z" fill="#2B323A"/><path d="M44.473 30.682h-2.728v2.636h2.728v-2.636z" fill="#2B323A"/></symbol><symbol id="advantages-3" viewBox="0 0 64 64"><path d="M59.666 16.19L32.142 7.077a1.5 1.5 0 00-.957.004L4.483 16.16c-.531 1.024-.671 2.729-.176 3.88l27.142 9.642c.39.138.813.138 1.202 0l26.865-9.544c.543-1.049.679-2.798.15-3.948zM7.682 18.15l23.994-8.16 24.687 8.176-24.314 8.639-24.367-8.657z" fill="#2B323A"/><path d="M59.666 29.917l-6.745-2.77c-1.251.486-2.737 1.05-4.314 1.641l7.758 3.106-24.314 8.639-24.369-8.657 9.527-2.845-4.483-1.573-8.243 2.429c-.531 1.024-.671 2.729-.176 3.88l27.142 9.642a1.8 1.8 0 001.202 0l26.865-9.544c.543-1.049.679-2.798.15-3.948z" fill="#2B323A"/><path d="M59.666 43.645l-6.745-2.77a438.3 438.3 0 01-4.315 1.64l7.76 3.106L32.05 54.26 7.684 45.603l9.527-2.844-4.483-1.574-8.243 2.431c-.531 1.024-.671 2.73-.177 3.88l27.143 9.643c.39.138.813.138 1.202 0l26.865-9.545c.543-1.048.679-2.798.15-3.947l-.002-.002z" fill="#FE6E36"/></symbol><symbol id="advantages-4" viewBox="0 0 64 64"><g clip-path="url(#clip0_544_2811)"><path d="M31.924 25.179a5.174 5.174 0 01-5.17-5.17 5.18 5.18 0 015.17-5.17 5.18 5.18 0 015.17 5.17 5.18 5.18 0 01-5.17 5.17zm0-7.715a2.547 2.547 0 00-2.545 2.545 2.547 2.547 0 002.545 2.544 2.547 2.547 0 002.544-2.544 2.547 2.547 0 00-2.544-2.545z" fill="#2B323A"/><path d="M31.14.085l-.026 8.24 2.635.008.026-8.24L31.14.085z" fill="#FE6E36"/><path d="M31.17 55.666l-.026 8.24 2.636.008.026-8.24-2.636-.008zM8.366 30.52l-8.24.03.01 2.636 8.24-.03-.01-2.636z" fill="#2B323A"/><path d="M63.873 30.591h-8.24v2.636h8.24v-2.636zm-9.14-21.005L48.61 15.1l1.763 1.959 6.124-5.514-1.764-1.959z" fill="#FE6E36"/><path d="M14.426 47.821l-5.818 5.835 1.866 1.86 5.818-5.834-1.866-1.861z" fill="#2B323A"/><path d="M50.169 47.294l-1.82 1.907 5.961 5.688 1.82-1.906-5.961-5.689zM10.15 8.85l-1.82 1.906 5.961 5.688 1.82-1.906-5.961-5.689z" fill="#FE6E36"/><path d="M36.811 26.724H26.754c-.869.363-1.828 1.212-2.262 2.13v8.765c.222.556.777 1.172 1.363 1.414h.889v7.826c.333 1.04 1.474 2.282 2.605 2.625h5.2c.99-.333 2.151-1.363 2.545-2.413v-8.028h.485c.636-.202 1.393-.888 1.585-1.575 0-.02 0-.03.01-.05v-8.432c-.434-.93-1.393-1.909-2.373-2.252l.01-.01zm-.262 9.674h-2.08v10.45h-5.09v-10.45h-2.252v-7.049h9.422v7.049z" fill="#2B323A"/></g></symbol><symbol id="arrow-right" viewBox="0 0 24 24"><path d="M17.182 12.749l-4.211 4.19.529.532.53.531 5.5-5.472a.751.751 0 000-1.063l-5.5-5.47-1.06 1.062 4.213 4.19H4v1.5h13.182z" fill="#FE6E36"/></symbol><symbol id="arrow" viewBox="0 0 18 18"><path d="M17.49 7.1l-7.483 3.115L.001 0 17.49 7.1zm-7.484 3.116l-3.27 7.416L0 0l10.006 10.216z" fill="#fff"/></symbol><symbol id="line" viewBox="0 0 32 32"><path d="M1.562 1.562a5.333 5.333 0 107.543 7.542 5.333 5.333 0 00-7.543-7.542zm21 21a5.333 5.333 0 107.543 7.543 5.333 5.333 0 00-7.543-7.543zM5.333 5.333l-.707.707 21 21 .707-.707.707-.707-21-21-.707.707z" fill="#FE6E36"/></symbol><symbol id="logo-cnews" viewBox="0 0 94 17"><path d="M65.51.926c-2.715.078-2.239 1.252-1.577 2.986l3.526 9.007 3.455-8.16C69.777 1.814 69.741 1.26 67.572.933V.386h7.864v.548c-2.759.107-2.39 1.215-1.942 2.424l3.605 9.561c1.471-3.277 4.044-8.935 4.045-10.663 0-1.215-1.138-1.215-2.062-1.322V.386h6.207v.548c-2.097.15-2.645 1.62-3.413 3.277l-5.737 12.79h-.512L71.255 5.824 66.663 17h-.555l-.014-.006-5.29-13.131c-.66-1.579-1.066-2.83-3.05-2.944V.371h7.757v.555zM53.824.01a5.452 5.452 0 012.161.313A5.322 5.322 0 0159.49 5.42H48.832l-.156 1.833a6.634 6.634 0 00.242 2.744c.27.89.725 1.707 1.336 2.404a6.583 6.583 0 004.885 2.239 5.15 5.15 0 002.466-.604 5.15 5.15 0 001.87-1.713l.547.405a8.168 8.168 0 01-2.822 3.021 7.992 7.992 0 01-3.938 1.245 7.8 7.8 0 01-5.581-2.446 7.77 7.77 0 01-1.642-2.637 7.932 7.932 0 01-.484-3.072c0-4.749 3.306-8.83 8.268-8.83zm34.87-.008a7.25 7.25 0 014.081 1.216l.107 3.27-.804.142-.007.015C91.56 2.953 90.756.89 88.66.89a2.403 2.403 0 00-1.792.746 2.352 2.352 0 00-.511.847 2.54 2.54 0 00-.128.98c0 3.79 7.606 3.676 7.606 8.417 0 3.278-3.12 5.113-6.1 5.113a7.63 7.63 0 01-4.478-1.359l-.291-4.08.846-.15c.519 2.247 1.763 4.635 4.372 4.635.383.008.76-.057 1.109-.199a2.64 2.64 0 00.938-.633c.263-.27.469-.596.604-.952.135-.355.192-.74.17-1.116 0-4.194-7.606-3.349-7.606-8.61 0-2.864 2.687-4.528 5.296-4.528zm-79.246 0c1.18 0 4.003.15 4.003 1.834a1.88 1.88 0 01-1.727 1.693c-1.287 0-2.61-2.389-4.452-2.389-2.935 0-4.335 3.419-4.335 5.914 0 4.742 3.234 7.757 6.867 7.757a6.052 6.052 0 003.782-1.43l.44.548a8.635 8.635 0 01-6.462 3.05l-.409.003C2.895 16.758 0 13.112 0 8.946 0 3.799 4.486.002 9.448.002zm29.752 0c4.408 0 4.63 3.64 4.63 5.808v6.548c0 3.014.148 3.313 2.863 3.71v.555h-8.566v-.554c2.716-.405 2.83-.846 2.865-3.711V8.135c0-2.573.107-6.214-4.372-6.214a5.168 5.168 0 00-2.04.399c-.647.27-1.23.676-1.707 1.18v8.865c0 3.014.15 3.313 2.865 3.71v.555h-8.56v-.554c2.716-.406 2.83-.846 2.866-3.711V5.34c0-1.542.035-2.019-1.799-3.348l.008-.37 4.372-1.62.405.14-.292 2.688C34.835 1.296 36.854.002 39.2.002zM20.973 2.846a5.334 5.334 0 015.332 5.332 5.334 5.334 0 01-5.332 5.331 5.334 5.334 0 01-5.332-5.33 5.334 5.334 0 015.332-5.333zm-1.067.711a2.13 2.13 0 00-2.133 2.133 2.13 2.13 0 002.133 2.133A2.13 2.13 0 0022.04 5.69a2.13 2.13 0 00-2.133-2.133zM52.686.82c-2.098 0-3.35 2.069-3.754 3.903l7.06-.299C55.663 2.732 54.625.82 52.685.82z" fill="#fff"/></symbol><symbol id="logo-solar" viewBox="0 0 105 21"><path d="M30.227 17.843c-1.173-.875-1.89-2.156-2.159-3.854h2.395c.505 2.173 2.036 3.26 4.601 3.26 1.206 0 2.142-.264 2.826-.781.676-.518 1.018-1.24 1.018-2.165 0-.79-.236-1.392-.7-1.79-.464-.4-1.303-.722-2.5-.951l-3.128-.595c-1.409-.263-2.443-.747-3.095-1.443-.66-.704-.985-1.655-.985-2.852 0-1.502.537-2.682 1.629-3.539 1.083-.857 2.565-1.282 4.447-1.282 1.881 0 3.355.425 4.463 1.265 1.107.84 1.767 2.054 1.995 3.633H38.73c-.366-2.012-1.759-3.013-4.178-3.013-1.14 0-2.044.246-2.728.73-.684.483-1.018 1.146-1.018 1.969 0 .738.22 1.298.651 1.655.432.365 1.222.662 2.362.891l3.111.62c1.474.297 2.558.806 3.25 1.536.692.722 1.042 1.706 1.042 2.945 0 1.58-.553 2.827-1.67 3.735-1.115.908-2.646 1.358-4.593 1.358-1.946 0-3.55-.433-4.723-1.307l-.008-.025zm16.622.212c-1.189-.73-2.11-1.757-2.76-3.064-.66-1.307-.986-2.81-.986-4.49 0-1.681.326-3.2.985-4.516.66-1.307 1.58-2.326 2.761-3.056s2.55-1.086 4.08-1.086c1.532 0 2.892.365 4.08 1.086 1.19.722 2.11 1.74 2.762 3.056.66 1.307.985 2.818.985 4.516 0 1.697-.325 3.174-.985 4.49-.66 1.307-1.58 2.334-2.761 3.064s-2.55 1.103-4.08 1.103c-1.532 0-2.892-.365-4.08-1.103zm-.708-4.066c.456 1.01 1.1 1.791 1.93 2.351.83.56 1.784.84 2.858.84 1.076 0 2.029-.28 2.86-.84.83-.56 1.473-1.34 1.93-2.351.456-1.002.684-2.164.684-3.489 0-1.324-.228-2.486-.676-3.496-.448-1.01-1.092-1.8-1.922-2.352-.831-.551-1.792-.831-2.884-.831-1.091 0-2.052.28-2.883.831-.83.552-1.474 1.333-1.922 2.352-.448 1.01-.676 2.18-.676 3.497 0 1.315.228 2.478.684 3.488h.017zM61.2 2.098h2.304v14.76h8.78v2.054H61.208V2.098H61.2zm19.546 0h2.606l6.426 16.814H87.36l-1.661-4.499h-7.403l-1.686 4.499h-2.305L80.73 2.098h.016zm4.243 10.355L82.025 4.44l-2.99 8.013h5.954zm6.833-10.355h7.542c1.743 0 3.054.407 3.934 1.213.888.807 1.327 2.003 1.327 3.582 0 1.435-.382 2.564-1.14 3.395-.757.832-1.857 1.341-3.298 1.52L105 18.904h-2.826l-4.7-7.045h-3.371v7.045h-2.305V2.098h.024zm7.355 7.715c1.075 0 1.873-.23 2.394-.696.521-.458.782-1.18.782-2.147 0-.968-.261-1.664-.782-2.13-.521-.468-1.319-.697-2.394-.697h-5.05v5.662h5.05v.008zM18.865 3.481c-2.37-2.665-6.1-3.947-9.74-3.327C6.004.646 3.26 2.539 1.59 5.357a11.271 11.271 0 00-1.1 9.056c.847 2.844 2.924 5.28 5.563 6.494l.212.093.317-.662-.203-.119a9.615 9.615 0 01-4.22-5.135c-1.262-3.505-.292-7.656 2.363-10.1 2.052-1.91 4.61-2.691 7.2-2.199 2.72.518 5.049 2.377 6.4 5.093 1.703 3.429 1.198 7.707-1.286 10.898l-.13.17.44.51.17-.111c1.866-1.214 3.299-3.242 3.934-5.551 1.01-3.582.074-7.63-2.386-10.321v.008z" fill="#fff"/></symbol><symbol id="play" viewBox="0 0 41 47"><path d="M40.559 23.417L0 46.833V0l40.559 23.417z" fill="#FE6E36"/></symbol><symbol id="rules-1" viewBox="0 0 64 64"><path d="M16.699 48.814C7.534 48.814.07 41.352.07 32.167c0-9.185 7.453-16.646 16.628-16.646 9.174 0 16.627 7.461 16.627 16.646h-2.643c0-7.715-6.268-14-13.984-14-7.717 0-13.985 6.275-13.985 14s6.268 14 13.985 14v2.647z" fill="#2B323A"/><path d="M47.301 48.48c-9.164 0-16.628-7.462-16.628-16.647h2.643c0 7.715 6.269 14 13.985 14 7.716 0 13.985-6.275 13.985-14s-6.269-14-13.985-14v-2.646c9.165 0 16.628 7.461 16.628 16.646S56.476 48.479 47.3 48.479z" fill="#2B323A"/><path d="M19.99 29.38l-1.843-1.896-2.886 2.818c-.426.892-.578 2.22-.253 3.194l2.967 3.142 1.913-1.814-2.632-2.788 2.724-2.656h.01zm30.146 1.46l-3.402-3.224-1.813 1.916 2.785 2.636-2.572 2.808 1.944 1.784 2.967-3.234c.274-.821.345-1.865.102-2.687h-.01z" fill="#FE6E36"/></symbol><symbol id="rules-2" viewBox="0 0 64 64"><path d="M32.48 45.235c-7.321 0-13.269-5.947-13.269-13.268 0-7.321 5.948-13.269 13.269-13.269 7.32 0 13.268 5.948 13.268 13.269 0 7.32-5.947 13.268-13.268 13.268zm0-23.921c-5.877 0-10.653 4.776-10.653 10.653 0 5.877 4.776 10.653 10.653 10.653 5.877 0 10.653-4.776 10.653-10.653 0-5.877-4.776-10.653-10.653-10.653z" fill="#FE6E36"/><path d="M62.955 25.837l-.03-.141a3.695 3.695 0 00-.586-.727l-4.402-1.939a9.245 9.245 0 01-5.484-9.502l.313-2.848-.02.04s.01-.03.02-.05l.122-1.1a3.697 3.697 0 00-.424-1.364 31.373 31.373 0 00-9.836-5.685c-.474-.01-1 .071-1.444.253l-.939.686-2.302 1.677a9.256 9.256 0 01-10.976 0L23.34 2.48a3.644 3.644 0 00-1.262-.212 31.458 31.458 0 00-9.664 5.21h-.02a4.094 4.094 0 00-.464 1.242l.525 4.797a9.25 9.25 0 01-5.483 9.502l-5.06 2.232a3.863 3.863 0 00-.969 1.09A31.948 31.948 0 00.38 32.31c0 1.242.08 2.504.222 3.736.162.455.444.919.788 1.282l5.574 2.464a9.245 9.245 0 015.483 9.502l-.707 6.534c.08.383.232.777.434 1.13l.05.041a31.672 31.672 0 008.1 4.726c.443.03.948-.04 1.403-.202l5.24-3.837a9.256 9.256 0 0110.977 0l4.887 3.584c.465.162 1.03.233 1.535.182a31.457 31.457 0 008.28-5.16h.01c.192-.333.354-.707.434-1.08l-.646-5.897a9.25 9.25 0 015.483-9.502l4.534-2c.354-.323.667-.747.869-1.191a31.576 31.576 0 00-.374-10.754v-.03zm-2.14 9.825l-3.94 1.738a11.857 11.857 0 00-7.028 12.178l.566 5.16a29.1 29.1 0 01-6.534 4.06l-4.402-3.222a11.862 11.862 0 00-14.067 0l-4.746 3.474a28.977 28.977 0 01-6.26-3.645l.636-5.817A11.857 11.857 0 008.013 37.41l-4.887-2.15a28.292 28.292 0 01-.142-2.929c0-1.626.142-3.251.404-4.857l4.625-2.04a11.857 11.857 0 007.028-12.178l-.455-4.14a28.795 28.795 0 017.705-4.13l3.12 2.292a11.862 11.862 0 0014.067 0l2.817-2.07a28.877 28.877 0 017.927 4.565l-.384 3.493a11.857 11.857 0 007.028 12.178l3.645 1.606a28.9 28.9 0 01.485 5.291c0 1.111-.06 2.232-.192 3.353l.01-.03z" fill="#2B323A"/></symbol><symbol id="rules-3" viewBox="0 0 64 64"><g clip-path="url(#clip0_544_2969)"><path d="M32.893 12.98H12.226v2.679h20.667V12.98zM12.22 19.636l-.018 2.678 10.685.07.018-2.678-10.685-.07z" fill="#FE6E36"/><path d="M46.95 64h-2.655v-8.05H19.91V64h-2.654v-7.48c0-.662 1.967-3.213 3.228-3.213h23.239c1.26 0 3.227 2.55 3.227 3.214V64zM32.112 49.612c-5.902 0-10.708-4.785-10.708-10.663 0-5.877 4.806-10.663 10.708-10.663S42.82 33.072 42.82 38.95s-4.806 10.663-10.708 10.663zm0-18.683c-4.437 0-8.054 3.602-8.054 8.02 0 4.419 3.617 8.02 8.054 8.02s8.054-3.601 8.054-8.02c0-4.418-3.617-8.02-8.054-8.02z" fill="#2B323A"/><path d="M.523 50.878a2.531 2.531 0 002.53 2.52h9.766v-2.612H3.146V8.46h58.23v42.326H51.244v2.612H61.47a2.531 2.531 0 002.53-2.52V8.358a2.531 2.531 0 00-2.53-2.52H3.053a2.531 2.531 0 00-2.531 2.52v42.52zM42.677.03H0v2.623h42.677V.03zm17.541 2.643V.061L63.733 0v2.622l-3.514.051zm-7.018 0V.061L56.715 0v2.622l-3.515.051zm-7.019 0V.061L49.696 0v2.622l-3.515.051z" fill="#2B323A"/></g></symbol><symbol id="rules-4" viewBox="0 0 64 64"><path d="M41.401 63.292c-.265-.075-6.543-1.949-12.921-10.324l-6.012-5.685-.023-.472c-.015-.33-.108-3.276 1.619-4.655.59-.472 1.623-.94 3.193-.498.722.202 1.428.54 2.101.955l-7.605-14.855.03-.34c.026-.308.33-3.018 2.397-4.127 1.327-.712 2.961-.555 4.853.476l.329.18 7.377 15.02-2.109 1.038-7.04-14.334c-.748-.364-1.664-.645-2.3-.304-.68.367-1.002 1.39-1.118 1.956l10.664 20.833-2.02 1.195c-.848-1.262-3.619-4.699-6.19-5.422-.741-.21-1.007 0-1.093.07-.508.406-.699 1.5-.736 2.253l5.44 5.145.06.08c5.93 7.82 11.695 9.544 11.755 9.563l-.647 2.263-.004-.01z" fill="#2B323A"/><path d="M40.418 38.03l-2.879-5.865c-.426-.135-1.196-.288-1.896.011-.684.296-1.215 1.005-1.574 2.106l-2.232-.73c.583-1.788 1.563-2.983 2.91-3.55 2-.842 3.947.072 4.164.177l.36.176 3.26 6.637-2.11 1.038h-.003z" fill="#2B323A"/><path d="M46.243 35.59l-2.333-4.748a3.16 3.16 0 00-1.294-.476c-1.129-.142-2.258.416-3.353 1.649l-1.754-1.567c3.294-3.71 6.734-2.458 8.095-1.277l.18.157 2.564 5.224-2.109 1.038h.004z" fill="#2B323A"/><path d="M56.29 54.096l-1.418-12.562-5.713-11.632c-.164-.169-.646-.596-1.252-.589-.823.012-1.623.806-2.146 1.473l-1.844-1.458c1.238-1.57 2.588-2.368 4.005-2.368 1.87 0 3.017 1.39 3.14 1.548l.079.097 6.02 12.254 1.462 12.97-2.334.267z" fill="#2B323A"/><path d="M19.66 20.312l9.107-9.13L27.09 9.5l-9.183 9.211-5.395-5.407-1.679 1.682 5.074 5.086c.766.66 2.666.85 3.75.228v.008l.004.004z" fill="#FE6E36"/><path d="M15.85 29.055C8.204 26.873 3.75 18.86 5.93 11.194 8.108 3.53 16.1-.933 23.75 1.252c7.65 2.18 12.1 10.193 9.923 17.86l-2.258-.644c1.824-6.416-1.903-13.124-8.304-14.953-6.409-1.825-13.098 1.908-14.922 8.323-1.825 6.416 1.903 13.124 8.304 14.953l-.643 2.264z" fill="#FE6E36"/></symbol><symbol id="rules-5" viewBox="0 0 64 64"><g clip-path="url(#clip0_544_2971)"><path d="M2.842 42.739H.217V29.602c0-.838 2.434-3.181 3.18-3.181h11.21v2.615H2.841V42.74z" fill="#2B323A"/><path d="M61.167 42.739h2.616V29.602c0-.838-2.434-3.181-3.181-3.181H49.393v2.615h11.774V42.74z" fill="#FE6E36"/><path d="M44.011 63.672h2.616V50.624c0-.656-1.94-3.18-3.181-3.18H29.824v2.615H44.01V63.67z" fill="#2B323A"/><path d="M19.979 63.672h-2.616V50.624c0-.656 1.939-3.18 3.181-3.18h13.622v2.615H19.979V63.67zm12.026-19.883c-5.816 0-10.552-4.736-10.552-10.552 0-5.817 4.736-10.552 10.552-10.552s10.552 4.735 10.552 10.552c0 5.816-4.736 10.552-10.552 10.552zm0-18.49c-4.372 0-7.937 3.565-7.937 7.938 0 4.372 3.565 7.937 7.937 7.937s7.937-3.565 7.937-7.937c0-4.373-3.565-7.937-7.937-7.937zM15.03 21.433c-5.816 0-10.552-4.736-10.552-10.553C4.478 5.064 9.214.328 15.031.328c5.816 0 10.552 4.736 10.552 10.552 0 5.817-4.736 10.553-10.552 10.553zm0-18.49c-4.372 0-7.936 3.565-7.936 7.937 0 4.373 3.564 7.937 7.937 7.937 4.372 0 7.936-3.564 7.936-7.937 0-4.372-3.564-7.937-7.936-7.937z" fill="#2B323A"/><path d="M48.848 21.463c-5.816 0-10.552-4.736-10.552-10.552 0-5.817 4.736-10.553 10.552-10.553S59.4 5.094 59.4 10.911c0 5.816-4.736 10.552-10.552 10.552zm0-18.49c-4.372 0-7.937 3.565-7.937 7.938 0 4.372 3.565 7.937 7.937 7.937 4.373 0 7.937-3.565 7.937-7.937 0-4.373-3.564-7.937-7.937-7.937z" fill="#FE6E36"/></g></symbol><symbol id="rules-6" viewBox="0 0 64 64"><g clip-path="url(#clip0_544_2972)"><path d="M29.473 1.604h-2.736v44.682h2.736V1.604z" fill="#2B323A"/><path d="M54.021.755H3.088C1.947 1.008.462 2.3.109 3.583a2.29 2.29 0 00-.08.515v40.876a2.862 2.862 0 002.857 2.857h31.273v-2.736H2.886a.123.123 0 01-.121-.121V3.614c0-.072.05-.122.12-.122h51.136c.06 0 .121.05.121.121v27.234h2.737V3.613A2.861 2.861 0 0054.02.755z" fill="#2B323A"/><path d="M63.443 57.848c.434-.787.646-2 .464-3.019-.03-.04-.05-.08-.08-.111L45.992 31.503a1.782 1.782 0 00-1.08-.666l-7.523-1.364a1.757 1.757 0 00-1.494.425 1.726 1.726 0 00-.586 1.433l.576 8.412c.02.353.151.697.373.97l17.096 21.609c.858.626 2.191 1.05 3.231.888.07-.04.142-.09.212-.141l6.634-5.21.01-.01zm-7.947 2.767L38.602 39.248l-.475-6.866 5.928 1.08L61.362 56l-5.877 4.615h.01z" fill="#FE6E36"/></g></symbol></svg>